<svg width="32" height="32" viewBox="0 0 32 32" fill="none" xmlns="http://www.w3.org/2000/svg">
  <!-- Chef hat body -->
  <path
    d="M10 20h12v3a2 2 0 01-2 2h-8a2 2 0 01-2-2v-3z"
    stroke="#5C6B4F"
    stroke-width="1.5"
    stroke-linejoin="round"
  />
  <!-- Chef hat top -->
  <path
    d="M10 20c-2.5 0-4-2-4-4.5 0-2 1.2-3.5 3-4 .5-2.5 2.5-4.5 5-4.5 1.5 0 2.8.6 3.8 1.5a5 5 0 014.2-1.5c2.5 0 4.5 2 5 4.5 1.8.5 3 2 3 4 0 2.5-1.5 4.5-4 4.5"
    stroke="#5C6B4F"
    stroke-width="1.5"
    stroke-linecap="round"
    stroke-linejoin="round"
  />
  <!-- PC initials -->
  <text
    x="16"
    y="18.5"
    text-anchor="middle"
    font-family="serif"
    font-weight="bold"
    font-size="9"
    fill="#5C6B4F"
  >PC</text>
</svg>
